<?xml version="1.0" encoding="utf-8"?>
<!-- Generator: Adobe Illustrator 14.0.0, SVG Export Plug-In . SVG Version: 6.00 Build 43363)  -->
<!DOCTYPE svg PUBLIC "-//W3C//DTD SVG 1.1//EN" "http://www.w3.org/Graphics/SVG/1.1/DTD/svg11.dtd">
<svg version="1.1" id="Layer_1" xmlns="http://www.w3.org/2000/svg" xmlns:xlink="http://www.w3.org/1999/xlink" x="0px" y="0px"
	 width="501px" height="501px" viewBox="0 0 501 501" enable-background="new 0 0 501 501" xml:space="preserve">
<path fill="#CFD0CB" stroke="#616362" stroke-width="16" d="M484.111,250.093c0,128.397-104.09,232.489-232.489,232.489
	c-128.4,0-232.489-104.092-232.489-232.489c0-128.4,104.089-232.49,232.489-232.49C380.021,17.603,484.111,121.692,484.111,250.093z
	"/>
<g>
	<path fill-rule="evenodd" clip-rule="evenodd" fill="#9E9E9E" d="M322.379,86.287c39.139,16.605,67.882,43.61,87.67,79.566
		c-19.207,27.697-37.382,56.428-57.096,83.617C343.033,194.804,332.385,140.868,322.379,86.287z"/>
	<path fill-rule="evenodd" clip-rule="evenodd" fill="#9E9E9E" d="M71.525,257.206c0-3.561,0-7.12,0-10.682
		c1.04-17.011,3.333-32.768,7.736-46.414c33.729-6.3,66.995-13.063,100.563-19.522c-31.351,47.106-62.382,94.54-93.932,141.45
		C77.893,303.637,72.819,282.312,71.525,257.206z"/>
	<path fill-rule="evenodd" clip-rule="evenodd" fill="#9E9E9E" d="M432.15,246.524c0,3.562,0,7.121,0,10.682
		c-1.04,17.01-3.332,32.767-7.736,46.414c-34.188,6.209-67.762,13.029-101.667,19.522c31.686-46.773,63.659-95.229,95.405-140.714
		C425.877,200.735,430.897,221.745,432.15,246.524z"/>
	<path fill-rule="evenodd" clip-rule="evenodd" fill="#9E9E9E" d="M151.828,251.313c10.458,55.357,20.593,111.032,30.574,166.867
		c-39.132-16.735-68.16-43.576-88.407-79.197C112.862,309.35,132.508,280.493,151.828,251.313z"/>
	<path fill-rule="evenodd" clip-rule="evenodd" fill="#9E9E9E" d="M417.783,320.564c0.246,0,0.492,0,0.738,0
		c-17.061,40.16-44.694,69.743-81.408,90.248c-25.158-16.425-50.624-33.673-75.514-50.834c-3.394-2.339-6.446-4.591-9.946-7.367
		C307.373,342.274,362.487,331.325,417.783,320.564z"/>
	<path fill-rule="evenodd" clip-rule="evenodd" fill="#9E9E9E" d="M246.497,71.552c3.561,0,7.121,0,10.682,0
		c17.579,1.208,34.302,3.271,47.888,8.473c6.451,32.594,12.299,65.791,18.785,98.352c-45.999-31.478-92.655-62.302-138.134-94.3
		C203.387,77.311,223.2,72.691,246.497,71.552z"/>
	<path fill-rule="evenodd" clip-rule="evenodd" fill="#9E9E9E" d="M246.497,432.177c-17.293-1.123-33.537-3.3-47.15-8.103
		c-5.717-33.33-11.92-66.172-18.05-99.09c46.254,31.224,92.995,61.964,138.503,93.933c-18.132,7.162-38.493,12.094-62.621,13.26
		C253.618,432.177,250.057,432.177,246.497,432.177z"/>
	<path fill-rule="evenodd" clip-rule="evenodd" fill="#9E9E9E" d="M121.37,127.055c2.532-2.503,5.065-5.006,7.598-7.509
		c12.83-11.217,25.648-20.663,38.45-27.123c28.189,19.563,56.383,38.471,84.573,57.805
		c-55.544,10.814-111.094,22.083-166.637,32.615C92.82,164.22,104.421,145.622,121.37,127.055z"/>
</g>
</svg>
